<svg xmlns="http://www.w3.org/2000/svg" viewBox="0 0 72 72">
  <rect width="72" height="72" rx="16" fill="#0d1117"/>
  <g transform="translate(5.8,5.8) scale(0.84)" fill="none" stroke="#e8edf2" stroke-width="2.6" stroke-linecap="round" stroke-linejoin="round">
    <path d="M36 13 V8 M32 8 H40"/>
    <path d="M11 24 L24 15 H48 L61 24 Z" fill="#e8edf2"/>
    <rect x="18" y="24" width="36" height="13"/>
    <rect x="21" y="26.5" width="30" height="8" fill="#3b82f6" stroke="none"/>
    <path d="M28.5 26.5 V34.5 M36 26.5 V34.5 M43.5 26.5 V34.5" stroke-width="1.6"/>
    <path d="M13 37 H59"/>
    <path d="M13 41 H59"/>
    <path d="M15 37 V41 M25 37 V41 M36 37 V41 M47 37 V41 M57 37 V41"/>
    <path d="M19 41 L11 63 M53 41 L61 63"/>
    <path d="M19 41 L57 52 M53 41 L15 52 M15 52 H57 M15 52 L61 63 M57 52 L11 63"/>
    <path d="M11 63 l-2 4 M61 63 l2 4"/>
  </g>
</svg>
